<svg width="128" height="128" viewBox="0 0 128 128" fill="none" xmlns="http://www.w3.org/2000/svg">
<g clip-path="url(#clip0_1_10)">
<path d="M36.4321 63.7284C36.4321 71.3036 30.2912 77.4445 22.7161 77.4445C15.1409 77.4445 9 71.3036 9 63.7284C9 56.153 15.1409 50.0124 22.7161 50.0124C30.2912 50.0124 36.4321 56.1533 36.4321 63.7284ZM77.4445 63.7284C77.4445 71.3036 71.3036 77.4445 63.7284 77.4445C56.153 77.4445 50.0124 71.3036 50.0124 63.7284C50.0124 56.153 56.1533 50.0124 63.7284 50.0124C71.3036 50.0124 77.4445 56.1533 77.4445 63.7284Z" fill="white"/>
<path d="M77.4445 104.741C77.4445 112.316 71.3036 118.457 63.7284 118.457C56.153 118.457 50.0124 112.316 50.0124 104.741C50.0124 97.1654 56.1533 91.0248 63.7284 91.0248C71.3036 91.0248 77.4445 97.1656 77.4445 104.741ZM118.457 63.7284C118.457 71.3036 112.316 77.4445 104.741 77.4445C97.1654 77.4445 91.0248 71.3036 91.0248 63.7284C91.0248 56.153 97.1656 50.0124 104.741 50.0124C112.316 50.0124 118.457 56.1533 118.457 63.7284Z" fill="white"/>
<path d="M36.4321 104.741C36.4321 112.316 30.2912 118.457 22.7161 118.457C15.1409 118.457 9 112.316 9 104.741C9 97.1654 15.1409 91.0248 22.7161 91.0248C30.2912 91.0248 36.4321 97.1656 36.4321 104.741ZM118.457 104.741C118.457 112.316 112.316 118.457 104.741 118.457C97.1654 118.457 91.0248 112.316 91.0248 104.741C91.0248 97.1654 97.1656 91.0248 104.741 91.0248C112.316 91.0248 118.457 97.1656 118.457 104.741Z" fill="#444444"/>
<path d="M36.4321 22.7161C36.4321 30.2912 30.2912 36.4321 22.7161 36.4321C15.1409 36.4321 9 30.2912 9 22.7161C9 15.1409 15.1409 9 22.7161 9C30.2912 9 36.4321 15.1409 36.4321 22.7161ZM77.4445 22.7161C77.4445 30.2912 71.3036 36.4321 63.7284 36.4321C56.153 36.4321 50.0124 30.2912 50.0124 22.7161C50.0124 15.1409 56.1533 9 63.7284 9C71.3036 9 77.4445 15.1409 77.4445 22.7161ZM118.457 22.7161C118.457 30.2912 112.316 36.4321 104.741 36.4321C97.1654 36.4321 91.0248 30.2912 91.0248 22.7161C91.0248 15.1409 97.1654 9 104.741 9C112.316 9 118.457 15.1409 118.457 22.7161Z" fill="#444444"/>
</g>
<defs>
<clipPath id="clip0_1_10">
<rect width="110" height="110" fill="white" transform="translate(9 9)"/>
</clipPath>
</defs>
</svg>
